pose14
version=1
nRows=4
nColumns=213
inDegrees=yes
endheader
time	platform_rx	platform_ry	platform_rz	platform_ty	pelvis_tilt	pelvis_list	pelvis_rotation	pelvis_tx	pelvis_ty	pelvis_tz	hip_flexion_r	hip_adduction_r	hip_rotation_r	knee_angle_r	knee_angle_r_beta	ankle_angle_r	subtalar_angle_r	mtp_angle_r	hip_flexion_l	hip_adduction_l	hip_rotation_l	knee_angle_l	knee_angle_l_beta	ankle_angle_l	subtalar_angle_l	mtp_angle_l	lumbar_extension	lumbar_bending	lumbar_rotation	arm_flex_r	arm_add_r	arm_rot_r	elbow_flex_r	pro_sup_r	wrist_flex_r	wrist_dev_r	arm_flex_l	arm_add_l	arm_rot_l	elbow_flex_l	pro_sup_l	wrist_flex_l	wrist_dev_l	platform_rx_u	platform_ry_u	platform_rz_u	platform_ty_u	pelvis_tilt_u	pelvis_list_u	pelvis_rotation_u	pelvis_tx_u	pelvis_ty_u	pelvis_tz_u	hip_flexion_r_u	hip_adduction_r_u	hip_rotation_r_u	knee_angle_r_u	knee_angle_r_beta_u	ankle_angle_r_u	subtalar_angle_r_u	mtp_angle_r_u	hip_flexion_l_u	hip_adduction_l_u	hip_rotation_l_u	knee_angle_l_u	knee_angle_l_beta_u	ankle_angle_l_u	subtalar_angle_l_u	mtp_angle_l_u	lumbar_extension_u	lumbar_bending_u	lumbar_rotation_u	arm_flex_r_u	arm_add_r_u	arm_rot_r_u	elbow_flex_r_u	pro_sup_r_u	wrist_flex_r_u	wrist_dev_r_u	arm_flex_l_u	arm_add_l_u	arm_rot_l_u	elbow_flex_l_u	pro_sup_l_u	wrist_flex_l_u	wrist_dev_l_u	addbrev_r.activation	addlong_r.activation	addlong_r.fiber_length	addmagDist_r.activation	addmagIsch_r.activation	addmagIsch_r.fiber_length	addmagMid_r.activation	addmagProx_r.activation	bflh_r.activation	bflh_r.fiber_length	bfsh_r.activation	edl_r.activation	edl_r.fiber_length	ehl_r.activation	ehl_r.fiber_length	fdl_r.activation	fdl_r.fiber_length	fhl_r.activation	fhl_r.fiber_length	gaslat_r.activation	gaslat_r.fiber_length	gasmed_r.activation	gasmed_r.fiber_length	glmax1_r.activation	glmax2_r.activation	glmax3_r.activation	glmed1_r.activation	glmed2_r.activation	glmed3_r.activation	glmin1_r.activation	glmin2_r.activation	glmin3_r.activation	glmin3_r.fiber_length	grac_r.activation	iliacus_r.activation	perbrev_r.activation	perbrev_r.fiber_length	perlong_r.activation	perlong_r.fiber_length	piri_r.activation	piri_r.fiber_length	psoas_r.activation	recfem_r.activation	recfem_r.fiber_length	sart_r.activation	semimem_r.activation	semimem_r.fiber_length	semiten_r.activation	semiten_r.fiber_length	soleus_r.activation	soleus_r.fiber_length	tfl_r.activation	tfl_r.fiber_length	tibant_r.activation	tibant_r.fiber_length	tibpost_r.activation	tibpost_r.fiber_length	vasint_r.activation	vasint_r.fiber_length	vaslat_r.activation	vaslat_r.fiber_length	vasmed_r.activation	vasmed_r.fiber_length	addbrev_l.activation	addlong_l.activation	addlong_l.fiber_length	addmagDist_l.activation	addmagIsch_l.activation	addmagIsch_l.fiber_length	addmagMid_l.activation	addmagProx_l.activation	bflh_l.activation	bflh_l.fiber_length	bfsh_l.activation	edl_l.activation	edl_l.fiber_length	ehl_l.activation	ehl_l.fiber_length	fdl_l.activation	fdl_l.fiber_length	fhl_l.activation	fhl_l.fiber_length	gaslat_l.activation	gaslat_l.fiber_length	gasmed_l.activation	gasmed_l.fiber_length	glmax1_l.activation	glmax2_l.activation	glmax3_l.activation	glmed1_l.activation	glmed2_l.activation	glmed3_l.activation	glmin1_l.activation	glmin2_l.activation	glmin3_l.activation	glmin3_l.fiber_length	grac_l.activation	iliacus_l.activation	perbrev_l.activation	perbrev_l.fiber_length	perlong_l.activation	perlong_l.fiber_length	piri_l.activation	piri_l.fiber_length	psoas_l.activation	recfem_l.activation	recfem_l.fiber_length	sart_l.activation	semimem_l.activation	semimem_l.fiber_length	semiten_l.activation	semiten_l.fiber_length	soleus_l.activation	soleus_l.fiber_length	tfl_l.activation	tfl_l.fiber_length	tibant_l.activation	tibant_l.fiber_length	tibpost_l.activation	tibpost_l.fiber_length	vasint_l.activation	vasint_l.fiber_length	vaslat_l.activation	vaslat_l.fiber_length	vasmed_l.activation	vasmed_l.fiber_length
      0.00249319	     20.00000000	      0.00000000	      0.00000000	      0.25000000	    -23.04258133	     -0.00051856	     -0.00062150	      0.01902033	      0.74012094	      0.00000213	     70.69772446	    -16.48501484	    -10.00360402	     72.68823128	     72.68823128	     23.84229479	     -0.09081322	      0.00000000	     70.69775076	    -16.48828854	     -9.99973340	     72.68864158	     72.68864158	     23.86227130	     -0.00000000	     -0.00000000	     -0.09961969	      0.00048326	      0.00061902	     75.01974120	     -0.00082588	     89.85091634	      0.12711024	      0.12446994	      0.00000000	     -0.00000000	     75.01977304	     -0.00088772	     89.85101765	      0.12716387	      0.12448496	     -0.00000000	      0.00000000	      0.00000000	      0.00000000	      0.00000000	     -0.00000000	     64.38805433	     -0.40202264	     -0.48009245	      0.01638036	      0.09686647	      0.00165438	    -74.85534003	     -2.41464305	     -2.94524944	    -16.17544042	    -16.17544042	   -378.66675672	    -71.04123236	      0.00000000	    -74.83504490	     -4.95931361	      0.03921776	    -15.85585817	    -15.85585817	   -363.13202953	     -0.00000000	     -0.00000000	    -79.74514229	      0.37283826	      0.47878951	     15.80396101	     -0.64406000	     -0.35670350	      1.84417616	     -0.24380811	      0.00000000	     -0.00000000	     15.82939093	     -0.69547977	     -0.30898767	      1.88724863	     -0.23174584	      0.00000000	     -0.00000000	      0.01000000	      0.01000000	      0.09526968	      0.01000000	      0.01000000	      0.20150276	      0.01000000	      0.01000000	      0.01000000	      0.11876078	      0.01000000	      0.01000000	      0.05423421	      0.01000000	      0.06200383	      0.01000000	      0.04741736	      0.01000000	      0.05571216	      0.01000000	      0.06041790	      0.01000000	      0.05082918	      0.01000000	      0.01000000	      0.01000000	      0.01000000	      0.01000000	      0.01000000	      0.01000000	      0.01000000	      0.01000000	      0.04526867	      0.01000000	      0.01000000	      0.01000000	      0.05047298	      0.01000000	      0.05699750	      0.01000000	      0.03009472	      0.01000000	      0.01000000	      0.05878217	      0.01000000	      0.01000000	      0.07870854	      0.01000000	      0.22947986	      0.01000000	      0.05957876	      0.01000000	      0.04204633	      0.01000000	      0.04844372	      0.01000000	      0.04173275	      0.01000000	      0.12778810	      0.01000000	      0.12512271	      0.01000000	      0.12301297	      0.01000000	      0.01000000	      0.09527201	      0.01000000	      0.01000000	      0.20150365	      0.01000000	      0.01000000	      0.01000000	      0.11876093	      0.01000000	      0.01000000	      0.05423924	      0.01000000	      0.06199880	      0.01000000	      0.04741460	      0.01000000	      0.05570947	      0.01000000	      0.06041868	      0.01000000	      0.05083051	      0.01000000	      0.01000000	      0.01000000	      0.01000000	      0.01000000	      0.01000000	      0.01000000	      0.01000000	      0.01000000	      0.04526648	      0.01000000	      0.01000000	      0.01000000	      0.05048998	      0.01000000	      0.05700659	      0.01000000	      0.03009397	      0.01000000	      0.01000000	      0.05878209	      0.01000000	      0.01000000	      0.07870855	      0.01000000	      0.22948017	      0.01000000	      0.05958064	      0.01000000	      0.04204440	      0.01000000	      0.04842472	      0.01000000	      0.04172944	      0.01000000	      0.12778822	      0.01000000	      0.12512281	      0.01000000	      0.12301308
      0.00332425	     20.00000000	      0.00000000	      0.00000000	      0.25000000	    -22.98021808	     -0.00090069	     -0.00107664	      0.01903625	      0.74021479	      0.00000370	     70.62511330	    -16.48735153	    -10.00647952	     72.67233201	     72.67233201	     23.47833567	     -0.15865758	      0.00000000	     70.62515985	    -16.49304686	     -9.99976207	     72.67304683	     72.67304683	     23.51309926	     -0.00000000	     -0.00000000	     -0.17684579	      0.00083654	      0.00107340	     75.03503450	     -0.00144896	     89.85057162	      0.12889433	      0.12423230	      0.00000000	     -0.00000000	     75.03509096	     -0.00156057	     89.85071912	      0.12898965	      0.12425900	      0.00000000	     -0.00000000	      0.00000000	      0.00000000	      0.00000000	     -0.00000000	     85.67659212	     -0.51590572	     -0.61290664	      0.02194313	      0.12897455	      0.00212828	    -99.89765659	     -3.20690441	     -3.98220018	    -22.15051144	    -22.15051144	   -496.44095004	    -91.99364335	      0.00000000	    -99.86905046	     -6.47976055	     -0.12643701	    -21.73864289	    -21.73864289	   -476.45076356	     -0.00000000	     -0.00000000	   -106.08106955	      0.47549625	      0.61252973	     20.99315406	     -0.85512191	     -0.47268043	      2.44846720	     -0.32810245	      0.00000000	     -0.00000000	     21.02694678	     -0.92343086	     -0.40926915	      2.50569847	     -0.31207716	      0.00000000	     -0.00000000	      0.01000000	      0.01000000	      0.09527614	      0.01000000	      0.01000000	      0.20144950	      0.01000000	      0.01000000	      0.01000000	      0.11873101	      0.01000000	      0.01000000	      0.05438807	      0.01000000	      0.06219842	      0.01000000	      0.04741558	      0.01000000	      0.05569967	      0.01000000	      0.06034007	      0.01000000	      0.05076567	      0.01000000	      0.01000000	      0.01000000	      0.01000000	      0.01000000	      0.01000000	      0.01000000	      0.01000000	      0.01000000	      0.04525561	      0.01000000	      0.01000000	      0.01000000	      0.05043855	      0.01000000	      0.05697099	      0.01000000	      0.03008472	      0.01000000	      0.01000000	      0.05879928	      0.01000000	      0.01000000	      0.07869003	      0.01000000	      0.22943547	      0.01000000	      0.05947061	      0.01000000	      0.04209221	      0.01000000	      0.04868095	      0.01000000	      0.04172789	      0.01000000	      0.12778237	      0.01000000	      0.12511783	      0.01000000	      0.12300795	      0.01000000	      0.01000000	      0.09528081	      0.01000000	      0.01000000	      0.20145120	      0.01000000	      0.01000000	      0.01000000	      0.11873132	      0.01000000	      0.01000000	      0.05439909	      0.01000000	      0.06218800	      0.01000000	      0.04740938	      0.01000000	      0.05569348	      0.01000000	      0.06034201	      0.01000000	      0.05076901	      0.01000000	      0.01000000	      0.01000000	      0.01000000	      0.01000000	      0.01000000	      0.01000000	      0.01000000	      0.01000000	      0.04525132	      0.01000000	      0.01000000	      0.01000000	      0.05047735	      0.01000000	      0.05699253	      0.01000000	      0.03008301	      0.01000000	      0.01000000	      0.05879908	      0.01000000	      0.01000000	      0.07869006	      0.01000000	      0.22943607	      0.01000000	      0.05947433	      0.01000000	      0.04208756	      0.01000000	      0.04864425	      0.01000000	      0.04172042	      0.01000000	      0.12778261	      0.01000000	      0.12511802	      0.01000000	      0.12300816
      0.00433362	     20.00000000	      0.00000000	      0.00000000	      0.25000000	    -22.88074350	     -0.00148571	     -0.00176910	      0.01906183	      0.74036461	      0.00000612	     70.50889435	    -16.49106744	    -10.01116248	     72.64609033	     72.64609033	     22.90769029	     -0.26358082	      0.00000000	     70.50897516	    -16.50047907	    -10.00005491	     72.64727250	     72.64727250	     22.96516622	     -0.00000000	     -0.00000000	     -0.29998678	      0.00137329	      0.00176662	     75.05938167	     -0.00244055	     89.85002394	      0.13173342	      0.12385007	      0.00000000	     -0.00000000	     75.05947730	     -0.00263130	     89.85024494	      0.13189507	      0.12389533	      0.00000000	     -0.00000000	      0.00000000	      0.00000000	     -0.00000000	     -0.00000000	    111.40124824	     -0.64095692	     -0.75601756	      0.02874566	      0.16788015	      0.00265138	   -130.39749468	     -4.15258174	     -5.31109999	    -29.94756939	    -29.94756939	   -633.09402366	   -115.58219131	      0.00000000	   -130.35828612	     -8.22938852	     -0.48340042	    -29.43584109	    -29.43584109	   -608.15913541	     -0.00000000	     -0.00000000	   -137.87953800	      0.58541271	      0.75819252	     27.23896693	     -1.10927889	     -0.61241889	      3.17596331	     -0.42845468	      0.00000000	     -0.00000000	     27.28274713	     -1.19773428	     -0.53025855	      3.25009720	     -0.40770086	     -0.00000000	     -0.00000000	      0.01000000	      0.01000000	      0.09528746	      0.01000000	      0.01000000	      0.20136059	      0.01000000	      0.01000000	      0.01000000	      0.11867663	      0.01000000	      0.01000000	      0.05466170	      0.01000000	      0.06253072	      0.01000000	      0.04741197	      0.01000000	      0.05567467	      0.01000000	      0.06018573	      0.01000000	      0.05063891	      0.01000000	      0.01000000	      0.01000000	      0.01000000	      0.01000000	      0.01000000	      0.01000000	      0.01000000	      0.01000000	      0.04523331	      0.01000000	      0.01000000	      0.01000000	      0.05037345	      0.01000000	      0.05691573	      0.01000000	      0.03006505	      0.01000000	      0.01000000	      0.05883809	      0.01000000	      0.01000000	      0.07865414	      0.01000000	      0.22936083	      0.01000000	      0.05928934	      0.01000000	      0.04218339	      0.01000000	      0.04907110	      0.01000000	      0.04171832	      0.01000000	      0.12777242	      0.01000000	      0.12510925	      0.01000000	      0.12299921	      0.01000000	      0.01000000	      0.09529607	      0.01000000	      0.01000000	      0.20136358	      0.01000000	      0.01000000	      0.01000000	      0.11867724	      0.01000000	      0.01000000	      0.05468232	      0.01000000	      0.06251153	      0.01000000	      0.04739902	      0.01000000	      0.05566092	      0.01000000	      0.06018947	      0.01000000	      0.05064509	      0.01000000	      0.01000000	      0.01000000	      0.01000000	      0.01000000	      0.01000000	      0.01000000	      0.01000000	      0.01000000	      0.04522552	      0.01000000	      0.01000000	      0.01000000	      0.05045373	      0.01000000	      0.05696457	      0.01000000	      0.03006140	      0.01000000	      0.01000000	      0.05883756	      0.01000000	      0.01000000	      0.07865421	      0.01000000	      0.22936191	      0.01000000	      0.05929604	      0.01000000	      0.04217384	      0.01000000	      0.04900634	      0.01000000	      0.04170232	      0.01000000	      0.12777284	      0.01000000	      0.12510960	      0.01000000	      0.12299958
      0.00534299	     20.00000000	      0.00000000	      0.00000000	      0.25000000	    -22.75537455	     -0.00219009	     -0.00259687	      0.01909429	      0.74055367	      0.00000904	     70.36184171	    -16.49572756	    -10.01723368	     72.61166591	     72.61166591	     22.20260819	     -0.39137259	      0.00000000	     70.36196694	    -16.50962621	    -10.00080027	     72.61340831	     72.61340831	     22.28756603	     -0.00000000	     -0.00000000	     -0.45512044	      0.00201313	      0.00259863	     75.09000366	     -0.00368773	     89.84933513	      0.13530410	      0.12337019	      0.00000000	     -0.00000000	     75.09014845	     -0.00397780	     89.84964840	      0.13554900	      0.12343875	      0.00000000	     -0.00000000	      0.00000000	      0.00000000	      0.00000000	     -0.00000000	    136.98569034	     -0.75267057	     -0.88144957	      0.03557535	      0.20670469	      0.00312302	   -160.99229235	     -5.07753367	     -6.73617456	    -38.36608195	    -38.36608195	   -762.86633577	   -137.35035647	      0.00000000	   -160.94378056	     -9.87941308	     -1.02493725	    -37.77048970	    -37.77048970	   -733.41052614	     -0.00000000	      0.00000000	   -169.47319281	      0.67998999	      0.88799546	     33.42739890	     -1.36171928	     -0.75268585	      3.89848311	     -0.52037318	      0.00000000	      0.00000000	     33.48102170	     -1.46999591	     -0.65204218	      3.98926513	     -0.49496572	      0.00000000	     -0.00000000	      0.01000000	      0.01000000	      0.09530278	      0.01000000	      0.01000000	      0.20124467	      0.01000000	      0.01000000	      0.01000000	      0.11860104	      0.01000000	      0.01000000	      0.05501963	      0.01000000	      0.06295876	      0.01000000	      0.04740639	      0.01000000	      0.05563603	      0.01000000	      0.05998578	      0.01000000	      0.05048085	      0.01000000	      0.01000000	      0.01000000	      0.01000000	      0.01000000	      0.01000000	      0.01000000	      0.01000000	      0.01000000	      0.04520387	      0.01000000	      0.01000000	      0.01000000	      0.05028479	      0.01000000	      0.05683139	      0.01000000	      0.03003592	      0.01000000	      0.01000000	      0.05890323	      0.01000000	      0.01000000	      0.07860097	      0.01000000	      0.22926355	      0.01000000	      0.05905461	      0.01000000	      0.04231225	      0.01000000	      0.04956689	      0.01000000	      0.04170389	      0.01000000	      0.12775890	      0.01000000	      0.12509751	      0.01000000	      0.12298735	      0.01000000	      0.01000000	      0.09531651	      0.01000000	      0.01000000	      0.20124927	      0.01000000	      0.01000000	      0.01000000	      0.11860208	      0.01000000	      0.01000000	      0.05505239	      0.01000000	      0.06292822	      0.01000000	      0.04738331	      0.01000000	      0.05560983	      0.01000000	      0.05999071	      0.01000000	      0.05048813	      0.01000000	      0.01000000	      0.01000000	      0.01000000	      0.01000000	      0.01000000	      0.01000000	      0.01000000	      0.01000000	      0.04519171	      0.01000000	      0.01000000	      0.01000000	      0.05042007	      0.01000000	      0.05692191	      0.01000000	      0.03002954	      0.01000000	      0.01000000	      0.05890220	      0.01000000	      0.01000000	      0.07860108	      0.01000000	      0.22926525	      0.01000000	      0.05906515	      0.01000000	      0.04229653	      0.01000000	      0.04946725	      0.01000000	      0.04167423	      0.01000000	      0.12775955	      0.01000000	      0.12509807	      0.01000000	      0.12298792
